{"asset":{"version":"2.0","generator":"THREE.GLTFExporter"},"scenes":[{"nodes":[0]}],"scene":0,"nodes":[{"matrix":[1,0,0,0,0,2.220446049250313e-16,-1,0,0,1,2.220446049250313e-16,0,0,0,0,1],"mesh":0}],"bufferViews":[{"buffer":0,"byteOffset":0,"byteLength":44928,"target":34962,"byteStride":12},{"buffer":0,"byteOffset":44928,"byteLength":44928,"target":34962,"byteStride":12},{"buffer":0,"byteOffset":89856,"byteLength":29952,"target":34962,"byteStride":8},{"buffer":0,"byteOffset":119808,"byteLength":2976,"target":34963},{"buffer":0,"byteOffset":122784,"byteLength":4512,"target":34963}],"buffers":[{"byteLength":127296,"uri":"data:application/octet-stream;base64,"}],"accessors":[{"bufferView":0,"componentType":5126,"count":3744,"max":[0.9918082356452942,0.9918103218078613,1],"min":[-0.9918082356452942,-0.9918103218078613,-1],"type":"VEC3"},{"bufferView":1,"componentType":5126,"count":3744,"max":[1,1,1],"min":[-1,-1,-1],"type":"VEC3"},{"bufferView":2,"componentType":5126,"count":3744,"max":[1,1],"min":[0,0],"type":"VEC2"},{"bufferView":3,"componentType":5123,"count":1488,"max":[1487],"min":[0],"type":"SCALAR"},{"bufferView":4,"componentType":5123,"count":2256,"max":[3743],"min":[1488],"type":"SCALAR"}],"materials":[{"pbrMetallicRoughness":{"metallicFactor":0,"roughnessFactor":0.9,"baseColorTexture":{"index":0,"texCoord":0,"extensions":{"KHR_texture_transform":{"scale":[-1,1]}}}},"extensions":{"KHR_materials_unlit":{}}},{"pbrMetallicRoughness":{"metallicFactor":0,"roughnessFactor":0.9,"baseColorTexture":{"index":1,"texCoord":0}},"extensions":{"KHR_materials_unlit":{}}}],"textures":[{"sampler":0,"source":0},{"sampler":1,"source":1}],"samplers":[{"magFilter":9729,"minFilter":9987,"wrapS":10497,"wrapT":10497},{"magFilter":9729,"minFilter":9987,"wrapS":10497,"wrapT":10497}],"images":[{"mimeType":"image/png","uri":"data:image/png;base64,"},{"mimeType":"image/png","uri":"data:image/png;base64,"}],"meshes":[{"primitives":[{"mode":4,"attributes":{"POSITION":0,"NORMAL":1,"TEXCOORD_0":2},"indices":3,"material":0},{"mode":4,"attributes":{"POSITION":0,"NORMAL":1,"TEXCOORD_0":2},"indices":4,"material":1}]}],"extensionsUsed":["KHR_texture_transform","KHR_materials_unlit"]}